<mxfile host="app.diagrams.net" modified="2023-04-10T18:15:21.812Z" agent="Mozilla/5.0 (Windows NT 10.0; Win64; x64) AppleWebKit/537.36 (KHTML, like Gecko) Chrome/111.0.0.0 Safari/537.36" etag="uJq6oLl3Xb153m0wFp79" version="21.1.5" type="device">
  <diagram id="R2lEEEUBdFMjLlhIrx00" name="Page-1">
    <mxGraphModel dx="1730" dy="1584" grid="1" gridSize="10" guides="1" tooltips="1" connect="1" arrows="1" fold="1" page="1" pageScale="1" pageWidth="850" pageHeight="1100" math="0" shadow="0" extFonts="Permanent Marker^https://fonts.googleapis.com/css?family=Permanent+Marker">
      <root>
        <mxCell id="0" />
        <mxCell id="1" parent="0" />
        <mxCell id="tXUsF4L0gm6LQhgz4FLE-1" value="&lt;font style=&quot;font-size: 14px;&quot;&gt;Branch&lt;/font&gt;" style="whiteSpace=wrap;html=1;align=center;fillColor=#f8cecc;strokeColor=#b85450;fontStyle=1" parent="1" vertex="1">
          <mxGeometry x="-300" y="12.5" width="100" height="40" as="geometry" />
        </mxCell>
        <mxCell id="tXUsF4L0gm6LQhgz4FLE-2" value="branch_no" style="ellipse;whiteSpace=wrap;html=1;align=center;fontStyle=5;fillColor=#e1d5e7;strokeColor=#9673a6;" parent="1" vertex="1">
          <mxGeometry x="-390" y="-87.5" width="80" height="30" as="geometry" />
        </mxCell>
        <mxCell id="tXUsF4L0gm6LQhgz4FLE-3" value="branch_name" style="ellipse;whiteSpace=wrap;html=1;align=center;fillColor=#d5e8d4;strokeColor=#82b366;fontStyle=1" parent="1" vertex="1">
          <mxGeometry x="-440" y="90" width="90" height="32.5" as="geometry" />
        </mxCell>
        <mxCell id="tXUsF4L0gm6LQhgz4FLE-4" value="owner_name" style="ellipse;whiteSpace=wrap;html=1;align=center;fillColor=#d5e8d4;strokeColor=#82b366;fontStyle=1" parent="1" vertex="1">
          <mxGeometry x="-470" y="17.5" width="90" height="30" as="geometry" />
        </mxCell>
        <mxCell id="y27OYHLkrYb-7DQTx8__-1" value="" style="endArrow=none;html=1;rounded=0;exitX=0;exitY=0;exitDx=0;exitDy=0;entryX=0.588;entryY=1;entryDx=0;entryDy=0;entryPerimeter=0;fontStyle=1" parent="1" source="tXUsF4L0gm6LQhgz4FLE-1" target="tXUsF4L0gm6LQhgz4FLE-2" edge="1">
          <mxGeometry width="50" height="50" relative="1" as="geometry">
            <mxPoint x="-330" y="12.5" as="sourcePoint" />
            <mxPoint x="-280" y="-37.5" as="targetPoint" />
          </mxGeometry>
        </mxCell>
        <mxCell id="tXUsF4L0gm6LQhgz4FLE-5" value="owner_contact" style="ellipse;whiteSpace=wrap;html=1;align=center;fillColor=#d5e8d4;strokeColor=#82b366;fontStyle=1" parent="1" vertex="1">
          <mxGeometry x="-350" y="122.5" width="90" height="37.5" as="geometry" />
        </mxCell>
        <mxCell id="y27OYHLkrYb-7DQTx8__-2" value="" style="endArrow=none;html=1;rounded=0;entryX=1;entryY=0;entryDx=0;entryDy=0;exitX=0.077;exitY=0.999;exitDx=0;exitDy=0;exitPerimeter=0;fontStyle=1" parent="1" source="tXUsF4L0gm6LQhgz4FLE-1" target="tXUsF4L0gm6LQhgz4FLE-3" edge="1">
          <mxGeometry width="50" height="50" relative="1" as="geometry">
            <mxPoint x="-310" y="60" as="sourcePoint" />
            <mxPoint x="-340" y="100" as="targetPoint" />
          </mxGeometry>
        </mxCell>
        <mxCell id="y27OYHLkrYb-7DQTx8__-3" value="" style="endArrow=none;html=1;rounded=0;entryX=1;entryY=0.5;entryDx=0;entryDy=0;exitX=0;exitY=0.5;exitDx=0;exitDy=0;fontStyle=1" parent="1" source="tXUsF4L0gm6LQhgz4FLE-1" target="tXUsF4L0gm6LQhgz4FLE-4" edge="1">
          <mxGeometry width="50" height="50" relative="1" as="geometry">
            <mxPoint x="-260" y="12.5" as="sourcePoint" />
            <mxPoint x="-180" y="-87.5" as="targetPoint" />
          </mxGeometry>
        </mxCell>
        <mxCell id="y27OYHLkrYb-7DQTx8__-4" value="" style="endArrow=none;html=1;rounded=0;entryX=0.5;entryY=0;entryDx=0;entryDy=0;exitX=0.25;exitY=1;exitDx=0;exitDy=0;fontStyle=1" parent="1" source="tXUsF4L0gm6LQhgz4FLE-1" target="tXUsF4L0gm6LQhgz4FLE-5" edge="1">
          <mxGeometry width="50" height="50" relative="1" as="geometry">
            <mxPoint x="-200" y="12.5" as="sourcePoint" />
            <mxPoint x="-340" y="80" as="targetPoint" />
          </mxGeometry>
        </mxCell>
        <mxCell id="Yr4l_lz7QZZwpKAGB9xT-4" value="city" style="ellipse;whiteSpace=wrap;html=1;align=center;fillColor=#d5e8d4;strokeColor=#82b366;fontStyle=1" parent="1" vertex="1">
          <mxGeometry x="-450" y="-52.5" width="80" height="30" as="geometry" />
        </mxCell>
        <mxCell id="tXUsF4L0gm6LQhgz4FLE-6" value="&lt;font style=&quot;font-size: 14px;&quot;&gt;Department&lt;/font&gt;" style="whiteSpace=wrap;html=1;align=center;fillColor=#f8cecc;strokeColor=#b85450;fontStyle=1" parent="1" vertex="1">
          <mxGeometry x="70" y="290" width="100" height="45" as="geometry" />
        </mxCell>
        <mxCell id="tXUsF4L0gm6LQhgz4FLE-7" value="dep_no" style="ellipse;whiteSpace=wrap;html=1;align=center;fontStyle=5;fillColor=#e1d5e7;strokeColor=#9673a6;" parent="1" vertex="1">
          <mxGeometry x="60" y="175" width="70" height="30" as="geometry" />
        </mxCell>
        <mxCell id="y27OYHLkrYb-7DQTx8__-7" value="" style="endArrow=none;html=1;rounded=0;exitX=0;exitY=0.5;exitDx=0;exitDy=0;fontStyle=1" parent="1" source="tXUsF4L0gm6LQhgz4FLE-1" target="Yr4l_lz7QZZwpKAGB9xT-4" edge="1">
          <mxGeometry width="50" height="50" relative="1" as="geometry">
            <mxPoint x="-340" y="52.5" as="sourcePoint" />
            <mxPoint x="-390" y="2.5" as="targetPoint" />
          </mxGeometry>
        </mxCell>
        <mxCell id="tXUsF4L0gm6LQhgz4FLE-10" value="dep_name" style="ellipse;whiteSpace=wrap;html=1;align=center;fillColor=#d5e8d4;strokeColor=#82b366;fontStyle=1" parent="1" vertex="1">
          <mxGeometry x="145" y="182.5" width="70" height="30" as="geometry" />
        </mxCell>
        <mxCell id="Yr4l_lz7QZZwpKAGB9xT-7" value="&lt;font style=&quot;font-size: 14px;&quot;&gt;Raw_Material&lt;/font&gt;" style="whiteSpace=wrap;html=1;align=center;fillColor=#f8cecc;strokeColor=#b85450;fontStyle=1" parent="1" vertex="1">
          <mxGeometry x="360" y="555" width="100" height="40" as="geometry" />
        </mxCell>
        <mxCell id="tXUsF4L0gm6LQhgz4FLE-12" value="&lt;font style=&quot;font-size: 14px;&quot;&gt;Employee&lt;/font&gt;" style="whiteSpace=wrap;html=1;align=center;fillColor=#f8cecc;strokeColor=#b85450;fontStyle=1" parent="1" vertex="1">
          <mxGeometry x="-250" y="550" width="100" height="40" as="geometry" />
        </mxCell>
        <mxCell id="y27OYHLkrYb-7DQTx8__-14" value="" style="endArrow=none;html=1;rounded=0;exitX=0.25;exitY=0;exitDx=0;exitDy=0;entryX=0.5;entryY=1;entryDx=0;entryDy=0;fillColor=#647687;strokeColor=#314354;fontStyle=1" parent="1" source="tXUsF4L0gm6LQhgz4FLE-6" target="tXUsF4L0gm6LQhgz4FLE-7" edge="1">
          <mxGeometry width="50" height="50" relative="1" as="geometry">
            <mxPoint x="80" y="290" as="sourcePoint" />
            <mxPoint x="115" y="220" as="targetPoint" />
          </mxGeometry>
        </mxCell>
        <mxCell id="tXUsF4L0gm6LQhgz4FLE-14" value="emp_name" style="ellipse;whiteSpace=wrap;html=1;align=center;fillColor=#d5e8d4;strokeColor=#82b366;fontStyle=1" parent="1" vertex="1">
          <mxGeometry x="-460" y="510" width="80" height="30" as="geometry" />
        </mxCell>
        <mxCell id="Yr4l_lz7QZZwpKAGB9xT-10" value="rm_name" style="ellipse;whiteSpace=wrap;html=1;align=center;fillColor=#d5e8d4;strokeColor=#82b366;fontStyle=1" parent="1" vertex="1">
          <mxGeometry x="290" y="650" width="70" height="35" as="geometry" />
        </mxCell>
        <mxCell id="tXUsF4L0gm6LQhgz4FLE-16" value="salary" style="ellipse;whiteSpace=wrap;html=1;align=center;rotation=-15;fillColor=#d5e8d4;strokeColor=#82b366;fontStyle=1" parent="1" vertex="1">
          <mxGeometry x="-160" y="645" width="50" height="30" as="geometry" />
        </mxCell>
        <mxCell id="tXUsF4L0gm6LQhgz4FLE-13" value="emp_id" style="ellipse;whiteSpace=wrap;html=1;align=center;fontStyle=5;fillColor=#e1d5e7;strokeColor=#9673a6;" parent="1" vertex="1">
          <mxGeometry x="-330" y="450" width="60" height="30" as="geometry" />
        </mxCell>
        <mxCell id="tXUsF4L0gm6LQhgz4FLE-17" value="emp_contact" style="ellipse;whiteSpace=wrap;html=1;align=center;fillColor=#d5e8d4;strokeColor=#82b366;fontStyle=1" parent="1" vertex="1">
          <mxGeometry x="-260" y="655" width="90" height="35" as="geometry" />
        </mxCell>
        <mxCell id="tXUsF4L0gm6LQhgz4FLE-18" value="city" style="ellipse;whiteSpace=wrap;html=1;align=center;rotation=-30;fillColor=#d5e8d4;strokeColor=#82b366;fontStyle=1" parent="1" vertex="1">
          <mxGeometry x="-430" y="560" width="60" height="30" as="geometry" />
        </mxCell>
        <mxCell id="tXUsF4L0gm6LQhgz4FLE-19" value="age" style="ellipse;whiteSpace=wrap;html=1;align=center;rotation=15;fillColor=#d5e8d4;strokeColor=#82b366;fontStyle=1" parent="1" vertex="1">
          <mxGeometry x="-390" y="615" width="60" height="30" as="geometry" />
        </mxCell>
        <mxCell id="Yr4l_lz7QZZwpKAGB9xT-12" value="&lt;font style=&quot;font-size: 14px;&quot;&gt;Raw_Mat_Bill&lt;/font&gt;" style="whiteSpace=wrap;html=1;align=center;fillColor=#f8cecc;strokeColor=#b85450;fontStyle=1" parent="1" vertex="1">
          <mxGeometry x="715" y="550" width="100" height="40" as="geometry" />
        </mxCell>
        <mxCell id="Yr4l_lz7QZZwpKAGB9xT-14" value="sup_contact" style="ellipse;whiteSpace=wrap;html=1;align=center;fillColor=#d5e8d4;strokeColor=#82b366;fontStyle=1" parent="1" vertex="1">
          <mxGeometry x="920" y="420" width="90" height="30" as="geometry" />
        </mxCell>
        <mxCell id="Yr4l_lz7QZZwpKAGB9xT-16" value="supplier" style="ellipse;whiteSpace=wrap;html=1;align=center;fillColor=#d5e8d4;strokeColor=#82b366;fontStyle=1" parent="1" vertex="1">
          <mxGeometry x="850" y="480" width="85" height="30" as="geometry" />
        </mxCell>
        <mxCell id="Yr4l_lz7QZZwpKAGB9xT-17" value="rm_qty" style="ellipse;whiteSpace=wrap;html=1;align=center;fillColor=#d5e8d4;strokeColor=#82b366;fontStyle=1" parent="1" vertex="1">
          <mxGeometry x="515" y="635" width="70" height="30" as="geometry" />
        </mxCell>
        <mxCell id="Yr4l_lz7QZZwpKAGB9xT-18" value="" style="endArrow=none;html=1;rounded=0;fontStyle=1;exitX=1;exitY=0;exitDx=0;exitDy=0;entryX=0.257;entryY=0.943;entryDx=0;entryDy=0;entryPerimeter=0;" parent="1" source="Yr4l_lz7QZZwpKAGB9xT-16" target="Yr4l_lz7QZZwpKAGB9xT-14" edge="1">
          <mxGeometry width="50" height="50" relative="1" as="geometry">
            <mxPoint x="890" y="450" as="sourcePoint" />
            <mxPoint x="950" y="420" as="targetPoint" />
          </mxGeometry>
        </mxCell>
        <mxCell id="Yr4l_lz7QZZwpKAGB9xT-19" value="rm_rate" style="ellipse;whiteSpace=wrap;html=1;align=center;fillColor=#d5e8d4;strokeColor=#82b366;fontStyle=1" parent="1" vertex="1">
          <mxGeometry x="610" y="635" width="70" height="30" as="geometry" />
        </mxCell>
        <mxCell id="Yr4l_lz7QZZwpKAGB9xT-20" value="" style="endArrow=none;html=1;rounded=0;entryX=0.432;entryY=0.989;entryDx=0;entryDy=0;entryPerimeter=0;fontStyle=1" parent="1" target="Yr4l_lz7QZZwpKAGB9xT-16" edge="1">
          <mxGeometry width="50" height="50" relative="1" as="geometry">
            <mxPoint x="795" y="550" as="sourcePoint" />
            <mxPoint x="845" y="500" as="targetPoint" />
          </mxGeometry>
        </mxCell>
        <mxCell id="Yr4l_lz7QZZwpKAGB9xT-24" value="" style="endArrow=none;html=1;rounded=0;entryX=0;entryY=0.5;entryDx=0;entryDy=0;fontStyle=1;" parent="1" target="tXUsF4L0gm6LQhgz4FLE-96" edge="1">
          <mxGeometry width="50" height="50" relative="1" as="geometry">
            <mxPoint x="785" y="590" as="sourcePoint" />
            <mxPoint x="855" y="645" as="targetPoint" />
          </mxGeometry>
        </mxCell>
        <mxCell id="tXUsF4L0gm6LQhgz4FLE-23" value="&lt;font style=&quot;font-size: 14px;&quot;&gt;Product&lt;/font&gt;" style="whiteSpace=wrap;html=1;align=center;fillColor=#f8cecc;strokeColor=#b85450;fontStyle=1" parent="1" vertex="1">
          <mxGeometry x="380" y="-172.5" width="100" height="40" as="geometry" />
        </mxCell>
        <mxCell id="tXUsF4L0gm6LQhgz4FLE-24" value="prod_id" style="ellipse;whiteSpace=wrap;html=1;align=center;fontStyle=5;fillColor=#e1d5e7;strokeColor=#9673a6;" parent="1" vertex="1">
          <mxGeometry x="250" y="-250" width="70" height="30" as="geometry" />
        </mxCell>
        <mxCell id="tXUsF4L0gm6LQhgz4FLE-25" value="description" style="ellipse;whiteSpace=wrap;html=1;align=center;fillColor=#d5e8d4;strokeColor=#82b366;fontStyle=1" parent="1" vertex="1">
          <mxGeometry x="285" y="-295" width="80" height="30" as="geometry" />
        </mxCell>
        <mxCell id="tXUsF4L0gm6LQhgz4FLE-26" value="prod_name" style="ellipse;whiteSpace=wrap;html=1;align=center;fillColor=#d5e8d4;strokeColor=#82b366;fontStyle=1" parent="1" vertex="1">
          <mxGeometry x="605" y="-172.5" width="95" height="32.5" as="geometry" />
        </mxCell>
        <mxCell id="tXUsF4L0gm6LQhgz4FLE-27" value="category" style="ellipse;whiteSpace=wrap;html=1;align=center;fillColor=#d5e8d4;strokeColor=#82b366;fontStyle=1" parent="1" vertex="1">
          <mxGeometry x="475" y="-330" width="70" height="30" as="geometry" />
        </mxCell>
        <mxCell id="tXUsF4L0gm6LQhgz4FLE-28" value="color" style="ellipse;whiteSpace=wrap;html=1;align=center;fillColor=#d5e8d4;strokeColor=#82b366;fontStyle=1" parent="1" vertex="1">
          <mxGeometry x="555" y="-310" width="70" height="30" as="geometry" />
        </mxCell>
        <mxCell id="tXUsF4L0gm6LQhgz4FLE-29" value="" style="endArrow=none;html=1;rounded=0;entryX=0.5;entryY=1;entryDx=0;entryDy=0;fontStyle=1;exitX=0.336;exitY=-0.001;exitDx=0;exitDy=0;exitPerimeter=0;" parent="1" source="tXUsF4L0gm6LQhgz4FLE-23" target="tXUsF4L0gm6LQhgz4FLE-25" edge="1">
          <mxGeometry width="50" height="50" relative="1" as="geometry">
            <mxPoint x="450" y="-175" as="sourcePoint" />
            <mxPoint x="470" y="-222.5" as="targetPoint" />
          </mxGeometry>
        </mxCell>
        <mxCell id="tXUsF4L0gm6LQhgz4FLE-30" value="saleprice" style="ellipse;whiteSpace=wrap;html=1;align=center;fillColor=#d5e8d4;strokeColor=#82b366;fontStyle=1" parent="1" vertex="1">
          <mxGeometry x="585" y="-265" width="70" height="30" as="geometry" />
        </mxCell>
        <mxCell id="tXUsF4L0gm6LQhgz4FLE-31" value="" style="endArrow=none;html=1;rounded=0;entryX=0.5;entryY=1;entryDx=0;entryDy=0;fontStyle=1" parent="1" target="tXUsF4L0gm6LQhgz4FLE-27" edge="1">
          <mxGeometry width="50" height="50" relative="1" as="geometry">
            <mxPoint x="460" y="-172.5" as="sourcePoint" />
            <mxPoint x="510" y="-222.5" as="targetPoint" />
          </mxGeometry>
        </mxCell>
        <mxCell id="tXUsF4L0gm6LQhgz4FLE-32" value="" style="endArrow=none;html=1;rounded=0;entryX=0;entryY=1;entryDx=0;entryDy=0;fontStyle=1" parent="1" target="tXUsF4L0gm6LQhgz4FLE-28" edge="1">
          <mxGeometry width="50" height="50" relative="1" as="geometry">
            <mxPoint x="480" y="-172.5" as="sourcePoint" />
            <mxPoint x="530" y="-222.5" as="targetPoint" />
          </mxGeometry>
        </mxCell>
        <mxCell id="tXUsF4L0gm6LQhgz4FLE-33" value="" style="endArrow=none;html=1;rounded=0;entryX=0;entryY=1;entryDx=0;entryDy=0;exitX=1;exitY=0.5;exitDx=0;exitDy=0;fontStyle=1" parent="1" source="tXUsF4L0gm6LQhgz4FLE-23" target="tXUsF4L0gm6LQhgz4FLE-30" edge="1">
          <mxGeometry width="50" height="50" relative="1" as="geometry">
            <mxPoint x="490" y="-142.5" as="sourcePoint" />
            <mxPoint x="530" y="-192.5" as="targetPoint" />
          </mxGeometry>
        </mxCell>
        <mxCell id="tXUsF4L0gm6LQhgz4FLE-34" value="" style="endArrow=none;html=1;rounded=0;exitX=0.25;exitY=0;exitDx=0;exitDy=0;fontStyle=1;entryX=0.5;entryY=1;entryDx=0;entryDy=0;" parent="1" source="tXUsF4L0gm6LQhgz4FLE-23" target="tXUsF4L0gm6LQhgz4FLE-24" edge="1">
          <mxGeometry width="50" height="50" relative="1" as="geometry">
            <mxPoint x="380" y="-132.5" as="sourcePoint" />
            <mxPoint x="390" y="-230" as="targetPoint" />
          </mxGeometry>
        </mxCell>
        <mxCell id="tXUsF4L0gm6LQhgz4FLE-35" value="" style="endArrow=none;html=1;rounded=0;fontStyle=1;entryX=0;entryY=0.5;entryDx=0;entryDy=0;" parent="1" target="tXUsF4L0gm6LQhgz4FLE-26" edge="1">
          <mxGeometry width="50" height="50" relative="1" as="geometry">
            <mxPoint x="480" y="-140" as="sourcePoint" />
            <mxPoint x="560" y="-95" as="targetPoint" />
          </mxGeometry>
        </mxCell>
        <mxCell id="y27OYHLkrYb-7DQTx8__-29" value="" style="endArrow=none;html=1;rounded=0;entryX=1;entryY=0.5;entryDx=0;entryDy=0;fontStyle=1" parent="1" target="tXUsF4L0gm6LQhgz4FLE-14" edge="1">
          <mxGeometry width="50" height="50" relative="1" as="geometry">
            <mxPoint x="-250" y="560" as="sourcePoint" />
            <mxPoint x="-170" y="480" as="targetPoint" />
          </mxGeometry>
        </mxCell>
        <mxCell id="y27OYHLkrYb-7DQTx8__-31" value="" style="endArrow=none;html=1;rounded=0;exitX=0.07;exitY=0.025;exitDx=0;exitDy=0;exitPerimeter=0;entryX=0.5;entryY=1;entryDx=0;entryDy=0;fontStyle=1" parent="1" source="tXUsF4L0gm6LQhgz4FLE-12" target="tXUsF4L0gm6LQhgz4FLE-13" edge="1">
          <mxGeometry width="50" height="50" relative="1" as="geometry">
            <mxPoint x="-300" y="530" as="sourcePoint" />
            <mxPoint x="-250" y="480" as="targetPoint" />
          </mxGeometry>
        </mxCell>
        <mxCell id="y27OYHLkrYb-7DQTx8__-32" value="" style="endArrow=none;html=1;rounded=0;exitX=0;exitY=0.25;exitDx=0;exitDy=0;fontStyle=1" parent="1" source="tXUsF4L0gm6LQhgz4FLE-12" edge="1">
          <mxGeometry width="50" height="50" relative="1" as="geometry">
            <mxPoint x="-280" y="570" as="sourcePoint" />
            <mxPoint x="-340.73352300433316" y="498.1453567001686" as="targetPoint" />
          </mxGeometry>
        </mxCell>
        <mxCell id="y27OYHLkrYb-7DQTx8__-33" value="" style="endArrow=none;html=1;rounded=1;exitX=0;exitY=0.5;exitDx=0;exitDy=0;entryX=1;entryY=1;entryDx=0;entryDy=0;fontStyle=1" parent="1" source="tXUsF4L0gm6LQhgz4FLE-12" target="tXUsF4L0gm6LQhgz4FLE-18" edge="1">
          <mxGeometry width="50" height="50" relative="1" as="geometry">
            <mxPoint x="-290" y="569.5" as="sourcePoint" />
            <mxPoint x="-340" y="569.5" as="targetPoint" />
          </mxGeometry>
        </mxCell>
        <mxCell id="Yr4l_lz7QZZwpKAGB9xT-25" value="rm_bill_date" style="ellipse;whiteSpace=wrap;html=1;align=center;fillColor=#d5e8d4;strokeColor=#82b366;fontStyle=1;rotation=15;" parent="1" vertex="1">
          <mxGeometry x="900.89" y="520.77" width="80" height="40" as="geometry" />
        </mxCell>
        <mxCell id="Yr4l_lz7QZZwpKAGB9xT-26" value="" style="endArrow=none;html=1;rounded=0;exitX=1;exitY=0.75;exitDx=0;exitDy=0;entryX=0;entryY=1;entryDx=0;entryDy=0;fontStyle=1" parent="1" source="Yr4l_lz7QZZwpKAGB9xT-12" target="Yr4l_lz7QZZwpKAGB9xT-25" edge="1">
          <mxGeometry width="50" height="50" relative="1" as="geometry">
            <mxPoint x="845" y="620" as="sourcePoint" />
            <mxPoint x="895" y="570" as="targetPoint" />
          </mxGeometry>
        </mxCell>
        <mxCell id="tXUsF4L0gm6LQhgz4FLE-38" value="" style="endArrow=none;html=1;rounded=0;entryX=0;entryY=0.5;entryDx=0;entryDy=0;fontStyle=1" parent="1" target="tXUsF4L0gm6LQhgz4FLE-36" edge="1">
          <mxGeometry width="50" height="50" relative="1" as="geometry">
            <mxPoint x="480" y="-150" as="sourcePoint" />
            <mxPoint x="550" y="-227.5" as="targetPoint" />
            <Array as="points" />
          </mxGeometry>
        </mxCell>
        <mxCell id="y27OYHLkrYb-7DQTx8__-34" value="" style="endArrow=none;html=1;rounded=0;entryX=0;entryY=1;entryDx=0;entryDy=0;exitX=0.714;exitY=0.04;exitDx=0;exitDy=0;exitPerimeter=0;fontStyle=1" parent="1" source="tXUsF4L0gm6LQhgz4FLE-19" target="tXUsF4L0gm6LQhgz4FLE-12" edge="1">
          <mxGeometry width="50" height="50" relative="1" as="geometry">
            <mxPoint x="-320" y="610" as="sourcePoint" />
            <mxPoint x="-240" y="580" as="targetPoint" />
          </mxGeometry>
        </mxCell>
        <mxCell id="y27OYHLkrYb-7DQTx8__-36" value="" style="endArrow=none;html=1;rounded=0;entryX=0.5;entryY=1;entryDx=0;entryDy=0;exitX=0.5;exitY=0;exitDx=0;exitDy=0;fontStyle=1" parent="1" source="tXUsF4L0gm6LQhgz4FLE-17" target="tXUsF4L0gm6LQhgz4FLE-12" edge="1">
          <mxGeometry width="50" height="50" relative="1" as="geometry">
            <mxPoint x="-210" y="660" as="sourcePoint" />
            <mxPoint x="-160" y="610" as="targetPoint" />
          </mxGeometry>
        </mxCell>
        <mxCell id="tXUsF4L0gm6LQhgz4FLE-15" value="gender" style="ellipse;whiteSpace=wrap;html=1;align=center;fillColor=#d5e8d4;strokeColor=#82b366;fontStyle=1" parent="1" vertex="1">
          <mxGeometry x="-330" y="655" width="60" height="30" as="geometry" />
        </mxCell>
        <mxCell id="tXUsF4L0gm6LQhgz4FLE-53" value="&lt;font style=&quot;font-size: 14px;&quot;&gt;Stock&lt;/font&gt;" style="whiteSpace=wrap;html=1;align=center;fillColor=#f8cecc;strokeColor=#b85450;fontStyle=1" parent="1" vertex="1">
          <mxGeometry x="-20" y="-170" width="100" height="40" as="geometry" />
        </mxCell>
        <mxCell id="y27OYHLkrYb-7DQTx8__-37" value="" style="endArrow=none;html=1;rounded=0;exitX=0.25;exitY=1;exitDx=0;exitDy=0;fontStyle=1" parent="1" source="tXUsF4L0gm6LQhgz4FLE-12" target="tXUsF4L0gm6LQhgz4FLE-15" edge="1">
          <mxGeometry width="50" height="50" relative="1" as="geometry">
            <mxPoint x="-140" y="540" as="sourcePoint" />
            <mxPoint x="-90" y="490" as="targetPoint" />
          </mxGeometry>
        </mxCell>
        <mxCell id="tXUsF4L0gm6LQhgz4FLE-54" value="stc_id" style="ellipse;whiteSpace=wrap;html=1;align=center;fontStyle=5;fillColor=#e1d5e7;strokeColor=#9673a6;" parent="1" vertex="1">
          <mxGeometry x="-150" y="-280" width="60" height="30" as="geometry" />
        </mxCell>
        <mxCell id="tXUsF4L0gm6LQhgz4FLE-57" value="" style="endArrow=none;html=1;rounded=0;exitX=0;exitY=0;exitDx=0;exitDy=0;entryX=0.588;entryY=1;entryDx=0;entryDy=0;entryPerimeter=0;fontStyle=1" parent="1" source="tXUsF4L0gm6LQhgz4FLE-53" target="tXUsF4L0gm6LQhgz4FLE-54" edge="1">
          <mxGeometry width="50" height="50" relative="1" as="geometry">
            <mxPoint x="-50" y="-170" as="sourcePoint" />
            <mxPoint y="-220" as="targetPoint" />
          </mxGeometry>
        </mxCell>
        <mxCell id="tXUsF4L0gm6LQhgz4FLE-58" value="&lt;u&gt;stc_date&lt;/u&gt;" style="ellipse;whiteSpace=wrap;html=1;align=center;rotation=0;fillColor=#e1d5e7;strokeColor=#9673a6;fontStyle=1" parent="1" vertex="1">
          <mxGeometry x="-80" y="-300" width="60" height="30" as="geometry" />
        </mxCell>
        <mxCell id="Yr4l_lz7QZZwpKAGB9xT-30" value="" style="endArrow=none;html=1;rounded=0;entryX=0.5;entryY=0;entryDx=0;entryDy=0;fontStyle=1" parent="1" edge="1">
          <mxGeometry width="50" height="50" relative="1" as="geometry">
            <mxPoint x="405" y="595" as="sourcePoint" />
            <mxPoint x="410" y="665" as="targetPoint" />
          </mxGeometry>
        </mxCell>
        <mxCell id="Yr4l_lz7QZZwpKAGB9xT-33" value="" style="endArrow=none;html=1;rounded=0;entryX=0.5;entryY=0;entryDx=0;entryDy=0;exitX=0.25;exitY=1;exitDx=0;exitDy=0;fontStyle=1" parent="1" source="Yr4l_lz7QZZwpKAGB9xT-7" edge="1">
          <mxGeometry width="50" height="50" relative="1" as="geometry">
            <mxPoint x="310" y="575" as="sourcePoint" />
            <mxPoint x="345" y="655" as="targetPoint" />
          </mxGeometry>
        </mxCell>
        <mxCell id="tXUsF4L0gm6LQhgz4FLE-68" value="&lt;font style=&quot;font-size: 14px;&quot;&gt;Customer&lt;/font&gt;" style="whiteSpace=wrap;html=1;align=center;fillColor=#f8cecc;strokeColor=#b85450;fontStyle=1" parent="1" vertex="1">
          <mxGeometry x="730" y="290" width="100" height="40" as="geometry" />
        </mxCell>
        <mxCell id="tXUsF4L0gm6LQhgz4FLE-69" value="cus_name" style="ellipse;whiteSpace=wrap;html=1;align=center;fontStyle=1;fillColor=#d5e8d4;strokeColor=#82b366;" parent="1" vertex="1">
          <mxGeometry x="930" y="290" width="70" height="30" as="geometry" />
        </mxCell>
        <mxCell id="tXUsF4L0gm6LQhgz4FLE-70" value="cus_contact" style="ellipse;whiteSpace=wrap;html=1;align=center;fillColor=#d5e8d4;strokeColor=#82b366;fontStyle=1" parent="1" vertex="1">
          <mxGeometry x="860" y="170" width="80" height="35" as="geometry" />
        </mxCell>
        <mxCell id="tXUsF4L0gm6LQhgz4FLE-71" value="cus_no" style="ellipse;whiteSpace=wrap;html=1;align=center;fillColor=#e1d5e7;strokeColor=#9673a6;fontStyle=5" parent="1" vertex="1">
          <mxGeometry x="900" y="330" width="70" height="30" as="geometry" />
        </mxCell>
        <mxCell id="tXUsF4L0gm6LQhgz4FLE-72" value="address" style="ellipse;whiteSpace=wrap;html=1;align=center;fillColor=#d5e8d4;strokeColor=#82b366;fontStyle=1" parent="1" vertex="1">
          <mxGeometry x="910" y="210" width="70" height="30" as="geometry" />
        </mxCell>
        <mxCell id="tXUsF4L0gm6LQhgz4FLE-73" value="rating" style="ellipse;whiteSpace=wrap;html=1;align=center;fillColor=#d5e8d4;strokeColor=#82b366;fontStyle=1" parent="1" vertex="1">
          <mxGeometry x="940" y="250" width="60" height="30" as="geometry" />
        </mxCell>
        <mxCell id="tXUsF4L0gm6LQhgz4FLE-74" value="" style="endArrow=none;html=1;rounded=0;entryX=0.302;entryY=0.984;entryDx=0;entryDy=0;exitX=0.59;exitY=-0.021;exitDx=0;exitDy=0;exitPerimeter=0;fontStyle=1;entryPerimeter=0;" parent="1" source="tXUsF4L0gm6LQhgz4FLE-68" target="tXUsF4L0gm6LQhgz4FLE-70" edge="1">
          <mxGeometry width="50" height="50" relative="1" as="geometry">
            <mxPoint x="770" y="290" as="sourcePoint" />
            <mxPoint x="912.5" y="190" as="targetPoint" />
          </mxGeometry>
        </mxCell>
        <mxCell id="tXUsF4L0gm6LQhgz4FLE-76" value="" style="endArrow=none;html=1;rounded=0;entryX=0;entryY=0.5;entryDx=0;entryDy=0;fontStyle=1" parent="1" target="tXUsF4L0gm6LQhgz4FLE-72" edge="1">
          <mxGeometry width="50" height="50" relative="1" as="geometry">
            <mxPoint x="810" y="290" as="sourcePoint" />
            <mxPoint x="870" y="180" as="targetPoint" />
          </mxGeometry>
        </mxCell>
        <mxCell id="tXUsF4L0gm6LQhgz4FLE-77" value="" style="endArrow=none;html=1;rounded=0;entryX=0;entryY=1;entryDx=0;entryDy=0;fontStyle=1" parent="1" target="tXUsF4L0gm6LQhgz4FLE-73" edge="1">
          <mxGeometry width="50" height="50" relative="1" as="geometry">
            <mxPoint x="830" y="290" as="sourcePoint" />
            <mxPoint x="880" y="240" as="targetPoint" />
          </mxGeometry>
        </mxCell>
        <mxCell id="tXUsF4L0gm6LQhgz4FLE-79" value="" style="endArrow=none;html=1;rounded=0;entryX=0;entryY=1;entryDx=0;entryDy=0;exitX=1;exitY=0.25;exitDx=0;exitDy=0;fontStyle=1" parent="1" source="tXUsF4L0gm6LQhgz4FLE-68" target="tXUsF4L0gm6LQhgz4FLE-69" edge="1">
          <mxGeometry width="50" height="50" relative="1" as="geometry">
            <mxPoint x="730" y="330" as="sourcePoint" />
            <mxPoint x="680" y="280" as="targetPoint" />
          </mxGeometry>
        </mxCell>
        <mxCell id="tXUsF4L0gm6LQhgz4FLE-80" value="" style="endArrow=none;html=1;rounded=0;exitX=1;exitY=0.75;exitDx=0;exitDy=0;fontStyle=1" parent="1" source="tXUsF4L0gm6LQhgz4FLE-68" edge="1">
          <mxGeometry width="50" height="50" relative="1" as="geometry">
            <mxPoint x="750" y="290" as="sourcePoint" />
            <mxPoint x="900" y="340" as="targetPoint" />
          </mxGeometry>
        </mxCell>
        <mxCell id="Yr4l_lz7QZZwpKAGB9xT-49" value="&lt;font style=&quot;font-size: 14px;&quot;&gt;Order&lt;/font&gt;" style="whiteSpace=wrap;html=1;align=center;fillColor=#f8cecc;strokeColor=#b85450;fontStyle=1" parent="1" vertex="1">
          <mxGeometry x="700" y="38" width="100" height="40" as="geometry" />
        </mxCell>
        <mxCell id="Yr4l_lz7QZZwpKAGB9xT-50" value="ord_no" style="ellipse;whiteSpace=wrap;html=1;align=center;fontStyle=5;fillColor=#e1d5e7;strokeColor=#9673a6;" parent="1" vertex="1">
          <mxGeometry x="680" y="-87.5" width="70" height="30" as="geometry" />
        </mxCell>
        <mxCell id="Yr4l_lz7QZZwpKAGB9xT-53" value="purpose" style="ellipse;whiteSpace=wrap;html=1;align=center;fillColor=#d5e8d4;strokeColor=#82b366;fontStyle=1" parent="1" vertex="1">
          <mxGeometry x="760" y="-90" width="70" height="30" as="geometry" />
        </mxCell>
        <mxCell id="Yr4l_lz7QZZwpKAGB9xT-54" value="ord_date" style="ellipse;whiteSpace=wrap;html=1;align=center;fillColor=#d5e8d4;strokeColor=#82b366;fontStyle=1" parent="1" vertex="1">
          <mxGeometry x="840" y="-72.5" width="70" height="30" as="geometry" />
        </mxCell>
        <mxCell id="Yr4l_lz7QZZwpKAGB9xT-56" value="prod_rate" style="ellipse;whiteSpace=wrap;html=1;align=center;fillColor=#d5e8d4;strokeColor=#82b366;fontStyle=1" parent="1" vertex="1">
          <mxGeometry x="567.5" y="-30" width="70" height="30" as="geometry" />
        </mxCell>
        <mxCell id="Yr4l_lz7QZZwpKAGB9xT-57" value="" style="endArrow=none;html=1;rounded=0;entryX=0.457;entryY=0.977;entryDx=0;entryDy=0;entryPerimeter=0;fillColor=#d5e8d4;strokeColor=#000000;fontStyle=1" parent="1" target="Yr4l_lz7QZZwpKAGB9xT-53" edge="1">
          <mxGeometry width="50" height="50" relative="1" as="geometry">
            <mxPoint x="780" y="37.5" as="sourcePoint" />
            <mxPoint x="830" y="-12.5" as="targetPoint" />
          </mxGeometry>
        </mxCell>
        <mxCell id="Yr4l_lz7QZZwpKAGB9xT-58" value="" style="endArrow=none;html=1;rounded=0;entryX=0;entryY=1;entryDx=0;entryDy=0;fillColor=#d5e8d4;strokeColor=#000000;fontStyle=1" parent="1" target="Yr4l_lz7QZZwpKAGB9xT-54" edge="1">
          <mxGeometry width="50" height="50" relative="1" as="geometry">
            <mxPoint x="800" y="37.5" as="sourcePoint" />
            <mxPoint x="850" y="-12.5" as="targetPoint" />
          </mxGeometry>
        </mxCell>
        <mxCell id="Yr4l_lz7QZZwpKAGB9xT-60" value="" style="endArrow=none;html=1;rounded=0;fillColor=#d5e8d4;strokeColor=#000000;fontStyle=1" parent="1" source="Yr4l_lz7QZZwpKAGB9xT-49" target="Yr4l_lz7QZZwpKAGB9xT-50" edge="1">
          <mxGeometry width="50" height="50" relative="1" as="geometry">
            <mxPoint x="700" y="77.5" as="sourcePoint" />
            <mxPoint x="720" y="-10" as="targetPoint" />
          </mxGeometry>
        </mxCell>
        <mxCell id="Yr4l_lz7QZZwpKAGB9xT-62" value="prod_qty" style="ellipse;whiteSpace=wrap;html=1;align=center;fillColor=#d5e8d4;strokeColor=#82b366;fontStyle=1" parent="1" vertex="1">
          <mxGeometry x="460" y="-30" width="80" height="30" as="geometry" />
        </mxCell>
        <mxCell id="tXUsF4L0gm6LQhgz4FLE-36" value="size" style="ellipse;whiteSpace=wrap;html=1;align=center;fillColor=#d5e8d4;strokeColor=#82b366;fontStyle=1" parent="1" vertex="1">
          <mxGeometry x="610" y="-220" width="70" height="30" as="geometry" />
        </mxCell>
        <mxCell id="y27OYHLkrYb-7DQTx8__-57" value="" style="endArrow=none;html=1;rounded=0;shape=link;fontStyle=1" parent="1" edge="1">
          <mxGeometry relative="1" as="geometry">
            <mxPoint x="-230" y="52.5" as="sourcePoint" />
            <mxPoint x="-230" y="190" as="targetPoint" />
          </mxGeometry>
        </mxCell>
        <mxCell id="y27OYHLkrYb-7DQTx8__-58" value="N" style="resizable=0;html=1;whiteSpace=wrap;align=right;verticalAlign=bottom;fontStyle=1" parent="y27OYHLkrYb-7DQTx8__-57" connectable="0" vertex="1">
          <mxGeometry x="1" relative="1" as="geometry">
            <mxPoint x="-10" y="-10" as="offset" />
          </mxGeometry>
        </mxCell>
        <mxCell id="y27OYHLkrYb-7DQTx8__-59" value="&lt;b&gt;&lt;font style=&quot;font-size: 14px;&quot;&gt;&amp;nbsp; Control_&lt;br&gt;Under&lt;/font&gt;&lt;/b&gt;" style="shape=rhombus;perimeter=rhombusPerimeter;whiteSpace=wrap;html=1;align=center;fontStyle=0;fillColor=#dae8fc;strokeColor=#6c8ebf;" parent="1" vertex="1">
          <mxGeometry x="-290" y="190" width="120" height="60" as="geometry" />
        </mxCell>
        <mxCell id="y27OYHLkrYb-7DQTx8__-60" value="" style="endArrow=none;html=1;rounded=0;shape=link;fontStyle=1" parent="1" edge="1">
          <mxGeometry relative="1" as="geometry">
            <mxPoint x="-231" y="310" as="sourcePoint" />
            <mxPoint x="-230.76999999999998" y="250" as="targetPoint" />
          </mxGeometry>
        </mxCell>
        <mxCell id="y27OYHLkrYb-7DQTx8__-61" value="M" style="resizable=0;html=1;whiteSpace=wrap;align=right;verticalAlign=bottom;fontStyle=1" parent="y27OYHLkrYb-7DQTx8__-60" connectable="0" vertex="1">
          <mxGeometry x="1" relative="1" as="geometry">
            <mxPoint x="-9" y="25" as="offset" />
          </mxGeometry>
        </mxCell>
        <mxCell id="y27OYHLkrYb-7DQTx8__-62" value="" style="endArrow=none;html=1;rounded=0;shape=link;fontStyle=0" parent="1" edge="1">
          <mxGeometry relative="1" as="geometry">
            <mxPoint x="-230" y="310" as="sourcePoint" />
            <mxPoint x="70" y="310" as="targetPoint" />
          </mxGeometry>
        </mxCell>
        <mxCell id="y27OYHLkrYb-7DQTx8__-63" value="" style="endArrow=none;html=1;rounded=0;shape=link;fontStyle=1" parent="1" edge="1">
          <mxGeometry relative="1" as="geometry">
            <mxPoint x="118.75" y="335" as="sourcePoint" />
            <mxPoint x="119" y="440" as="targetPoint" />
          </mxGeometry>
        </mxCell>
        <mxCell id="y27OYHLkrYb-7DQTx8__-64" value="1" style="resizable=0;html=1;whiteSpace=wrap;align=right;verticalAlign=bottom;fontStyle=1" parent="y27OYHLkrYb-7DQTx8__-63" connectable="0" vertex="1">
          <mxGeometry x="1" relative="1" as="geometry">
            <mxPoint x="-10" y="-10" as="offset" />
          </mxGeometry>
        </mxCell>
        <mxCell id="tXUsF4L0gm6LQhgz4FLE-90" value="&lt;font style=&quot;font-size: 14px;&quot;&gt;Having&lt;/font&gt;" style="shape=rhombus;perimeter=rhombusPerimeter;whiteSpace=wrap;html=1;align=center;fontStyle=1;fillColor=#dae8fc;strokeColor=#6c8ebf;" parent="1" vertex="1">
          <mxGeometry x="-160" y="-72.5" width="120" height="60" as="geometry" />
        </mxCell>
        <mxCell id="y27OYHLkrYb-7DQTx8__-66" value="&lt;font style=&quot;font-size: 14px;&quot;&gt;Works_In&lt;/font&gt;" style="shape=rhombus;perimeter=rhombusPerimeter;whiteSpace=wrap;html=1;align=center;fontStyle=1;fillColor=#dae8fc;strokeColor=#6c8ebf;" parent="1" vertex="1">
          <mxGeometry x="60" y="440" width="120" height="60" as="geometry" />
        </mxCell>
        <mxCell id="y27OYHLkrYb-7DQTx8__-69" value="" style="endArrow=none;html=1;rounded=0;shape=link;fontStyle=1" parent="1" edge="1">
          <mxGeometry relative="1" as="geometry">
            <mxPoint x="119" y="570" as="sourcePoint" />
            <mxPoint x="118.98000000000002" y="500" as="targetPoint" />
          </mxGeometry>
        </mxCell>
        <mxCell id="y27OYHLkrYb-7DQTx8__-70" value="N" style="resizable=0;html=1;whiteSpace=wrap;align=right;verticalAlign=bottom;fontStyle=1" parent="y27OYHLkrYb-7DQTx8__-69" connectable="0" vertex="1">
          <mxGeometry x="1" relative="1" as="geometry">
            <mxPoint x="-9" y="25" as="offset" />
          </mxGeometry>
        </mxCell>
        <mxCell id="y27OYHLkrYb-7DQTx8__-71" value="" style="endArrow=none;html=1;rounded=0;shape=link;fontStyle=0" parent="1" edge="1">
          <mxGeometry relative="1" as="geometry">
            <mxPoint x="-150" y="570" as="sourcePoint" />
            <mxPoint x="120" y="570" as="targetPoint" />
          </mxGeometry>
        </mxCell>
        <mxCell id="tXUsF4L0gm6LQhgz4FLE-91" value="" style="shape=link;html=1;rounded=0;exitX=0.5;exitY=1;exitDx=0;exitDy=0;" parent="1" source="tXUsF4L0gm6LQhgz4FLE-53" edge="1">
          <mxGeometry relative="1" as="geometry">
            <mxPoint x="270" y="210" as="sourcePoint" />
            <mxPoint x="30" y="-40" as="targetPoint" />
          </mxGeometry>
        </mxCell>
        <mxCell id="tXUsF4L0gm6LQhgz4FLE-92" value="" style="resizable=0;html=1;whiteSpace=wrap;align=right;verticalAlign=bottom;" parent="tXUsF4L0gm6LQhgz4FLE-91" connectable="0" vertex="1">
          <mxGeometry x="1" relative="1" as="geometry" />
        </mxCell>
        <mxCell id="tXUsF4L0gm6LQhgz4FLE-93" value="" style="shape=link;html=1;rounded=0;entryX=0;entryY=0.5;entryDx=0;entryDy=0;width=5;" parent="1" target="tXUsF4L0gm6LQhgz4FLE-90" edge="1">
          <mxGeometry relative="1" as="geometry">
            <mxPoint x="-230" y="10" as="sourcePoint" />
            <mxPoint x="430" y="210" as="targetPoint" />
            <Array as="points">
              <mxPoint x="-230" y="-42" />
            </Array>
          </mxGeometry>
        </mxCell>
        <mxCell id="tXUsF4L0gm6LQhgz4FLE-94" value="1" style="resizable=0;html=1;whiteSpace=wrap;align=right;verticalAlign=bottom;fontStyle=1" parent="tXUsF4L0gm6LQhgz4FLE-93" connectable="0" vertex="1">
          <mxGeometry x="1" relative="1" as="geometry" />
        </mxCell>
        <mxCell id="Yr4l_lz7QZZwpKAGB9xT-75" value="&lt;b&gt;&lt;font style=&quot;font-size: 14px;&quot;&gt;Of&lt;/font&gt;&lt;/b&gt;" style="shape=rhombus;perimeter=rhombusPerimeter;whiteSpace=wrap;html=1;align=center;fillColor=#dae8fc;strokeColor=#6c8ebf;" parent="1" vertex="1">
          <mxGeometry x="190" y="-180" width="120" height="60" as="geometry" />
        </mxCell>
        <mxCell id="y27OYHLkrYb-7DQTx8__-72" value="" style="shape=link;html=1;rounded=0;" parent="1" edge="1">
          <mxGeometry relative="1" as="geometry">
            <mxPoint x="30" y="-43" as="sourcePoint" />
            <mxPoint x="-40" y="-43.120000000000005" as="targetPoint" />
          </mxGeometry>
        </mxCell>
        <mxCell id="y27OYHLkrYb-7DQTx8__-73" value="N" style="resizable=0;html=1;whiteSpace=wrap;align=right;verticalAlign=bottom;fontStyle=1" parent="y27OYHLkrYb-7DQTx8__-72" connectable="0" vertex="1">
          <mxGeometry x="1" relative="1" as="geometry">
            <mxPoint x="10" y="1" as="offset" />
          </mxGeometry>
        </mxCell>
        <mxCell id="y27OYHLkrYb-7DQTx8__-75" value="1" style="resizable=0;html=1;whiteSpace=wrap;align=right;verticalAlign=bottom;fontStyle=1" parent="y27OYHLkrYb-7DQTx8__-72" connectable="0" vertex="1">
          <mxGeometry x="1" relative="1" as="geometry">
            <mxPoint x="360" y="-107" as="offset" />
          </mxGeometry>
        </mxCell>
        <mxCell id="Yr4l_lz7QZZwpKAGB9xT-80" value="" style="shape=link;html=1;rounded=0;entryX=0;entryY=0.5;entryDx=0;entryDy=0;" parent="1" target="Yr4l_lz7QZZwpKAGB9xT-75" edge="1">
          <mxGeometry width="100" relative="1" as="geometry">
            <mxPoint x="80" y="-150" as="sourcePoint" />
            <mxPoint x="180" y="-150" as="targetPoint" />
          </mxGeometry>
        </mxCell>
        <mxCell id="Yr4l_lz7QZZwpKAGB9xT-81" value="" style="endArrow=none;html=1;rounded=0;exitX=1;exitY=0.5;exitDx=0;exitDy=0;" parent="1" source="Yr4l_lz7QZZwpKAGB9xT-75" edge="1">
          <mxGeometry width="50" height="50" relative="1" as="geometry">
            <mxPoint x="330" y="-100" as="sourcePoint" />
            <mxPoint x="380" y="-150" as="targetPoint" />
          </mxGeometry>
        </mxCell>
        <mxCell id="y27OYHLkrYb-7DQTx8__-77" value="&lt;font style=&quot;font-size: 14px;&quot;&gt;&amp;nbsp; Used_Raw_&lt;br&gt;Material&lt;br&gt;&lt;/font&gt;" style="shape=rhombus;perimeter=rhombusPerimeter;whiteSpace=wrap;html=1;align=center;fontStyle=1;fillColor=#dae8fc;strokeColor=#6c8ebf;" parent="1" vertex="1">
          <mxGeometry x="350" y="430" width="120" height="80" as="geometry" />
        </mxCell>
        <mxCell id="Yr4l_lz7QZZwpKAGB9xT-82" value="&lt;b&gt;&lt;font style=&quot;font-size: 14px;&quot;&gt;Order_Detail&lt;/font&gt;&lt;/b&gt;" style="shape=rhombus;perimeter=rhombusPerimeter;whiteSpace=wrap;html=1;align=center;fillColor=#dae8fc;strokeColor=#6c8ebf;" parent="1" vertex="1">
          <mxGeometry x="480" y="28" width="120" height="60" as="geometry" />
        </mxCell>
        <mxCell id="Yr4l_lz7QZZwpKAGB9xT-84" value="" style="shape=link;html=1;rounded=0;exitX=1;exitY=0.5;exitDx=0;exitDy=0;" parent="1" source="Yr4l_lz7QZZwpKAGB9xT-82" edge="1">
          <mxGeometry relative="1" as="geometry">
            <mxPoint x="590" y="60" as="sourcePoint" />
            <mxPoint x="700" y="60" as="targetPoint" />
          </mxGeometry>
        </mxCell>
        <mxCell id="Yr4l_lz7QZZwpKAGB9xT-85" value="M" style="resizable=0;html=1;whiteSpace=wrap;align=left;verticalAlign=bottom;fontStyle=1" parent="Yr4l_lz7QZZwpKAGB9xT-84" connectable="0" vertex="1">
          <mxGeometry x="-1" relative="1" as="geometry" />
        </mxCell>
        <mxCell id="tXUsF4L0gm6LQhgz4FLE-96" value="rm_bill_no" style="ellipse;whiteSpace=wrap;html=1;align=center;fontStyle=5;fillColor=#e1d5e7;strokeColor=#9673a6;rotation=10;" parent="1" vertex="1">
          <mxGeometry x="895" y="590" width="80" height="35" as="geometry" />
        </mxCell>
        <mxCell id="Yr4l_lz7QZZwpKAGB9xT-88" value="" style="endArrow=none;html=1;rounded=0;" parent="1" edge="1">
          <mxGeometry width="50" height="50" relative="1" as="geometry">
            <mxPoint x="430" y="60" as="sourcePoint" />
            <mxPoint x="430" y="-132.5" as="targetPoint" />
          </mxGeometry>
        </mxCell>
        <mxCell id="tXUsF4L0gm6LQhgz4FLE-97" value="rm_id" style="ellipse;whiteSpace=wrap;html=1;align=center;fontStyle=5;fillColor=#e1d5e7;strokeColor=#9673a6;" parent="1" vertex="1">
          <mxGeometry x="375" y="665" width="70" height="30" as="geometry" />
        </mxCell>
        <mxCell id="Yr4l_lz7QZZwpKAGB9xT-89" value="" style="endArrow=none;html=1;rounded=0;entryX=0;entryY=0.5;entryDx=0;entryDy=0;" parent="1" target="Yr4l_lz7QZZwpKAGB9xT-82" edge="1">
          <mxGeometry relative="1" as="geometry">
            <mxPoint x="430" y="60" as="sourcePoint" />
            <mxPoint x="460" y="60" as="targetPoint" />
          </mxGeometry>
        </mxCell>
        <mxCell id="Yr4l_lz7QZZwpKAGB9xT-90" value="N" style="resizable=0;html=1;whiteSpace=wrap;align=right;verticalAlign=bottom;fontStyle=1" parent="Yr4l_lz7QZZwpKAGB9xT-89" connectable="0" vertex="1">
          <mxGeometry x="1" relative="1" as="geometry" />
        </mxCell>
        <mxCell id="tXUsF4L0gm6LQhgz4FLE-98" value="&lt;b&gt;&lt;font style=&quot;font-size: 14px;&quot;&gt;Purchase&lt;/font&gt;&lt;/b&gt;" style="shape=rhombus;perimeter=rhombusPerimeter;whiteSpace=wrap;html=1;align=center;fontStyle=0;fillColor=#dae8fc;strokeColor=#6c8ebf;" parent="1" vertex="1">
          <mxGeometry x="530" y="542.5" width="140" height="65" as="geometry" />
        </mxCell>
        <mxCell id="y27OYHLkrYb-7DQTx8__-85" value="&lt;b&gt;&lt;font style=&quot;font-size: 14px;&quot;&gt;Given_By&lt;/font&gt;&lt;/b&gt;" style="shape=rhombus;perimeter=rhombusPerimeter;whiteSpace=wrap;html=1;align=center;fontStyle=0;fillColor=#dae8fc;strokeColor=#6c8ebf;" parent="1" vertex="1">
          <mxGeometry x="690" y="145" width="120" height="60" as="geometry" />
        </mxCell>
        <mxCell id="y27OYHLkrYb-7DQTx8__-86" value="" style="endArrow=none;html=1;rounded=0;shape=link;fontStyle=1;entryX=0.5;entryY=0;entryDx=0;entryDy=0;" parent="1" target="y27OYHLkrYb-7DQTx8__-85" edge="1">
          <mxGeometry relative="1" as="geometry">
            <mxPoint x="749.23" y="77.5" as="sourcePoint" />
            <mxPoint x="749.23" y="117.5" as="targetPoint" />
          </mxGeometry>
        </mxCell>
        <mxCell id="y27OYHLkrYb-7DQTx8__-87" value="N" style="resizable=0;html=1;whiteSpace=wrap;align=right;verticalAlign=bottom;fontStyle=1" parent="y27OYHLkrYb-7DQTx8__-86" connectable="0" vertex="1">
          <mxGeometry x="1" relative="1" as="geometry">
            <mxPoint x="-10" as="offset" />
          </mxGeometry>
        </mxCell>
        <mxCell id="y27OYHLkrYb-7DQTx8__-90" value="" style="endArrow=none;html=1;rounded=0;" parent="1" edge="1">
          <mxGeometry relative="1" as="geometry">
            <mxPoint x="750" y="290" as="sourcePoint" />
            <mxPoint x="749.5699999999999" y="205" as="targetPoint" />
          </mxGeometry>
        </mxCell>
        <mxCell id="y27OYHLkrYb-7DQTx8__-91" value="1" style="resizable=0;html=1;whiteSpace=wrap;align=right;verticalAlign=bottom;fontStyle=1" parent="y27OYHLkrYb-7DQTx8__-90" connectable="0" vertex="1">
          <mxGeometry x="1" relative="1" as="geometry">
            <mxPoint x="-10" y="15" as="offset" />
          </mxGeometry>
        </mxCell>
        <mxCell id="Yr4l_lz7QZZwpKAGB9xT-91" value="&lt;font style=&quot;font-size: 24px;&quot;&gt;&lt;b&gt;&lt;br&gt;Group - 3_13&lt;br&gt;&lt;br&gt;Tiles Industry Database Project&lt;br&gt;ER Diagram&lt;br&gt;&lt;br&gt;202101175&lt;br&gt;202101193&lt;br&gt;202101215&lt;/b&gt;&lt;br&gt;&lt;/font&gt;" style="rounded=1;whiteSpace=wrap;html=1;fillColor=#E8BAD5;strokeColor=#82b366;" parent="1" vertex="1">
          <mxGeometry x="167.5" y="-790" width="500" height="270" as="geometry" />
        </mxCell>
        <mxCell id="tXUsF4L0gm6LQhgz4FLE-100" value="M" style="text;html=1;align=center;verticalAlign=middle;resizable=0;points=[];autosize=1;strokeColor=none;fillColor=none;fontStyle=1" parent="1" vertex="1">
          <mxGeometry x="500" y="550" width="30" height="30" as="geometry" />
        </mxCell>
        <mxCell id="Yr4l_lz7QZZwpKAGB9xT-92" value="" style="endArrow=none;html=1;rounded=0;entryX=0.006;entryY=0.618;entryDx=0;entryDy=0;entryPerimeter=0;shape=link;" parent="1" target="Yr4l_lz7QZZwpKAGB9xT-12" edge="1">
          <mxGeometry width="50" height="50" relative="1" as="geometry">
            <mxPoint x="670" y="575" as="sourcePoint" />
            <mxPoint x="710" y="570" as="targetPoint" />
          </mxGeometry>
        </mxCell>
        <mxCell id="y27OYHLkrYb-7DQTx8__-93" value="" style="endArrow=none;html=1;rounded=0;entryX=1.08;entryY=0.85;entryDx=0;entryDy=0;entryPerimeter=0;shape=link;" parent="1" source="Yr4l_lz7QZZwpKAGB9xT-7" target="tXUsF4L0gm6LQhgz4FLE-100" edge="1">
          <mxGeometry relative="1" as="geometry">
            <mxPoint x="460" y="575" as="sourcePoint" />
            <mxPoint x="620" y="575" as="targetPoint" />
          </mxGeometry>
        </mxCell>
        <mxCell id="Yr4l_lz7QZZwpKAGB9xT-94" value="N" style="text;html=1;align=center;verticalAlign=middle;resizable=0;points=[];autosize=1;strokeColor=none;fillColor=none;fontStyle=1" parent="1" vertex="1">
          <mxGeometry x="650" y="550" width="30" height="30" as="geometry" />
        </mxCell>
        <mxCell id="6Hps1DVFBp2nkOR2yoN1-10" value="" style="endArrow=none;html=1;rounded=0;entryX=0.5;entryY=0;entryDx=0;entryDy=0;shape=link;" parent="1" target="y27OYHLkrYb-7DQTx8__-77" edge="1">
          <mxGeometry relative="1" as="geometry">
            <mxPoint x="399.9999999999999" y="-132.5" as="sourcePoint" />
            <mxPoint x="400" y="420" as="targetPoint" />
          </mxGeometry>
        </mxCell>
        <mxCell id="6Hps1DVFBp2nkOR2yoN1-11" value="N" style="resizable=0;html=1;whiteSpace=wrap;align=right;verticalAlign=bottom;fontStyle=1" parent="6Hps1DVFBp2nkOR2yoN1-10" connectable="0" vertex="1">
          <mxGeometry x="1" relative="1" as="geometry">
            <mxPoint x="-10" as="offset" />
          </mxGeometry>
        </mxCell>
        <mxCell id="6Hps1DVFBp2nkOR2yoN1-15" value="&lt;font style=&quot;font-size: 14px;&quot;&gt;Order_Bill&lt;/font&gt;" style="whiteSpace=wrap;html=1;align=center;fillColor=#f8cecc;strokeColor=#b85450;fontStyle=1" parent="1" vertex="1">
          <mxGeometry x="1150" y="82.5" width="100" height="40" as="geometry" />
        </mxCell>
        <mxCell id="6Hps1DVFBp2nkOR2yoN1-16" value="bill_no" style="ellipse;whiteSpace=wrap;html=1;align=center;fontStyle=5;fillColor=#e1d5e7;strokeColor=#9673a6;" parent="1" vertex="1">
          <mxGeometry x="1130" y="-42.5" width="70" height="30" as="geometry" />
        </mxCell>
        <mxCell id="6Hps1DVFBp2nkOR2yoN1-20" value="bill_date" style="ellipse;whiteSpace=wrap;html=1;align=center;fillColor=#d5e8d4;strokeColor=#82b366;fontStyle=1" parent="1" vertex="1">
          <mxGeometry x="1220" y="-42.5" width="70" height="30" as="geometry" />
        </mxCell>
        <mxCell id="6Hps1DVFBp2nkOR2yoN1-24" value="" style="endArrow=none;html=1;rounded=0;entryX=0.376;entryY=0.983;entryDx=0;entryDy=0;fillColor=#d5e8d4;strokeColor=#000000;fontStyle=1;entryPerimeter=0;exitX=0.75;exitY=0;exitDx=0;exitDy=0;" parent="1" source="6Hps1DVFBp2nkOR2yoN1-15" target="6Hps1DVFBp2nkOR2yoN1-20" edge="1">
          <mxGeometry width="50" height="50" relative="1" as="geometry">
            <mxPoint x="1230" y="80" as="sourcePoint" />
            <mxPoint x="1300" y="22.5" as="targetPoint" />
          </mxGeometry>
        </mxCell>
        <mxCell id="6Hps1DVFBp2nkOR2yoN1-26" value="" style="endArrow=none;html=1;rounded=0;fillColor=#d5e8d4;strokeColor=#000000;fontStyle=1" parent="1" source="6Hps1DVFBp2nkOR2yoN1-15" target="6Hps1DVFBp2nkOR2yoN1-16" edge="1">
          <mxGeometry width="50" height="50" relative="1" as="geometry">
            <mxPoint x="1150" y="112.5" as="sourcePoint" />
            <mxPoint x="1170" y="25" as="targetPoint" />
          </mxGeometry>
        </mxCell>
        <mxCell id="6Hps1DVFBp2nkOR2yoN1-30" value="" style="shape=link;html=1;rounded=0;exitX=0.971;exitY=0.512;exitDx=0;exitDy=0;exitPerimeter=0;entryX=0;entryY=0.5;entryDx=0;entryDy=0;" parent="1" source="6Hps1DVFBp2nkOR2yoN1-35" target="6Hps1DVFBp2nkOR2yoN1-15" edge="1">
          <mxGeometry relative="1" as="geometry">
            <mxPoint x="1000" y="92" as="sourcePoint" />
            <mxPoint x="1150" y="95" as="targetPoint" />
          </mxGeometry>
        </mxCell>
        <mxCell id="6Hps1DVFBp2nkOR2yoN1-31" value="1" style="resizable=0;html=1;whiteSpace=wrap;align=left;verticalAlign=bottom;fontStyle=1" parent="6Hps1DVFBp2nkOR2yoN1-30" connectable="0" vertex="1">
          <mxGeometry x="-1" relative="1" as="geometry">
            <mxPoint x="3" y="-4" as="offset" />
          </mxGeometry>
        </mxCell>
        <mxCell id="IFO3BKfiw6XNLfad59cN-47" value="1" style="resizable=0;html=1;whiteSpace=wrap;align=left;verticalAlign=bottom;fontStyle=1" parent="6Hps1DVFBp2nkOR2yoN1-30" connectable="0" vertex="1">
          <mxGeometry x="-1" relative="1" as="geometry">
            <mxPoint x="-127" y="-4" as="offset" />
          </mxGeometry>
        </mxCell>
        <mxCell id="6Hps1DVFBp2nkOR2yoN1-33" value="amount" style="ellipse;whiteSpace=wrap;html=1;align=center;fillColor=#d5e8d4;strokeColor=#82b366;fontStyle=1" parent="1" vertex="1">
          <mxGeometry x="1290" y="-17.5" width="70" height="30" as="geometry" />
        </mxCell>
        <mxCell id="6Hps1DVFBp2nkOR2yoN1-34" value="" style="endArrow=none;html=1;rounded=0;entryX=0.5;entryY=1;entryDx=0;entryDy=0;fillColor=#d5e8d4;strokeColor=#000000;fontStyle=1;" parent="1" target="6Hps1DVFBp2nkOR2yoN1-33" edge="1">
          <mxGeometry width="50" height="50" relative="1" as="geometry">
            <mxPoint x="1250" y="88" as="sourcePoint" />
            <mxPoint x="1266" y="2" as="targetPoint" />
          </mxGeometry>
        </mxCell>
        <mxCell id="6Hps1DVFBp2nkOR2yoN1-35" value="&lt;b&gt;&lt;font style=&quot;font-size: 14px;&quot;&gt;Made_For&lt;/font&gt;&lt;/b&gt;" style="shape=rhombus;perimeter=rhombusPerimeter;whiteSpace=wrap;html=1;align=center;fontStyle=0;fillColor=#dae8fc;strokeColor=#6c8ebf;" parent="1" vertex="1">
          <mxGeometry x="935" y="72.5" width="120" height="60" as="geometry" />
        </mxCell>
        <mxCell id="6Hps1DVFBp2nkOR2yoN1-38" value="" style="endArrow=none;html=1;rounded=0;shape=link;fontStyle=1;exitX=0;exitY=0.5;exitDx=0;exitDy=0;" parent="1" source="6Hps1DVFBp2nkOR2yoN1-35" edge="1">
          <mxGeometry relative="1" as="geometry">
            <mxPoint x="890" y="99.25" as="sourcePoint" />
            <mxPoint x="870" y="103" as="targetPoint" />
          </mxGeometry>
        </mxCell>
        <mxCell id="2henYn-RebU9A6FWUA9Q-3" value="&lt;b&gt;email&lt;/b&gt;" style="ellipse;whiteSpace=wrap;html=1;align=center;fillColor=#d5e8d4;strokeColor=#82b366;" parent="1" vertex="1">
          <mxGeometry x="-395" y="470" width="60" height="30" as="geometry" />
        </mxCell>
        <mxCell id="lK-r9_5rrmOkqntU8CIq-1" value="&lt;b style=&quot;border-color: var(--border-color);&quot;&gt;N&lt;/b&gt;" style="text;html=1;align=center;verticalAlign=middle;resizable=0;points=[];autosize=1;strokeColor=none;fillColor=none;" parent="1" vertex="1">
          <mxGeometry x="165" y="-175" width="30" height="30" as="geometry" />
        </mxCell>
        <mxCell id="IFO3BKfiw6XNLfad59cN-3" value="&lt;font style=&quot;font-size: 14px;&quot;&gt;Producing&lt;/font&gt;" style="shape=rhombus;perimeter=rhombusPerimeter;whiteSpace=wrap;html=1;align=center;fontStyle=1;fillColor=#dae8fc;strokeColor=#6c8ebf;" parent="1" vertex="1">
          <mxGeometry x="10" y="-400" width="120" height="60" as="geometry" />
        </mxCell>
        <mxCell id="IFO3BKfiw6XNLfad59cN-4" value="" style="shape=link;html=1;rounded=0;" parent="1" edge="1">
          <mxGeometry width="100" relative="1" as="geometry">
            <mxPoint x="-270" y="10" as="sourcePoint" />
            <mxPoint x="10" y="-370" as="targetPoint" />
            <Array as="points">
              <mxPoint x="-270" y="-370" />
            </Array>
          </mxGeometry>
        </mxCell>
        <mxCell id="IFO3BKfiw6XNLfad59cN-7" value="" style="shape=link;html=1;rounded=0;" parent="1" edge="1">
          <mxGeometry width="100" relative="1" as="geometry">
            <mxPoint x="130" y="-368.93" as="sourcePoint" />
            <mxPoint x="420" y="-371" as="targetPoint" />
          </mxGeometry>
        </mxCell>
        <mxCell id="IFO3BKfiw6XNLfad59cN-8" value="" style="shape=link;html=1;rounded=0;exitX=0.5;exitY=1;exitDx=0;exitDy=0;entryX=0.387;entryY=0.01;entryDx=0;entryDy=0;entryPerimeter=0;" parent="1" target="tXUsF4L0gm6LQhgz4FLE-23" edge="1">
          <mxGeometry relative="1" as="geometry">
            <mxPoint x="419.29" y="-373.75" as="sourcePoint" />
            <mxPoint x="419" y="-170" as="targetPoint" />
          </mxGeometry>
        </mxCell>
        <mxCell id="IFO3BKfiw6XNLfad59cN-9" value="" style="resizable=0;html=1;whiteSpace=wrap;align=right;verticalAlign=bottom;" parent="IFO3BKfiw6XNLfad59cN-8" connectable="0" vertex="1">
          <mxGeometry x="1" relative="1" as="geometry" />
        </mxCell>
        <mxCell id="IFO3BKfiw6XNLfad59cN-10" value="&lt;b style=&quot;border-color: var(--border-color);&quot;&gt;N&lt;/b&gt;" style="text;html=1;align=center;verticalAlign=middle;resizable=0;points=[];autosize=1;strokeColor=none;fillColor=none;" parent="1" vertex="1">
          <mxGeometry x="120" y="-400" width="30" height="30" as="geometry" />
        </mxCell>
        <mxCell id="IFO3BKfiw6XNLfad59cN-11" value="&lt;b style=&quot;border-color: var(--border-color);&quot;&gt;1&lt;/b&gt;" style="text;html=1;align=center;verticalAlign=middle;resizable=0;points=[];autosize=1;strokeColor=none;fillColor=none;" parent="1" vertex="1">
          <mxGeometry x="-15" y="-400" width="30" height="30" as="geometry" />
        </mxCell>
        <mxCell id="IFO3BKfiw6XNLfad59cN-12" value="" style="endArrow=none;html=1;rounded=0;exitX=0.25;exitY=0;exitDx=0;exitDy=0;entryX=0.5;entryY=1;entryDx=0;entryDy=0;fillColor=#647687;strokeColor=#314354;fontStyle=1" parent="1" target="tXUsF4L0gm6LQhgz4FLE-10" edge="1">
          <mxGeometry width="50" height="50" relative="1" as="geometry">
            <mxPoint x="134.64" y="290" as="sourcePoint" />
            <mxPoint x="134.64" y="205" as="targetPoint" />
          </mxGeometry>
        </mxCell>
        <mxCell id="IFO3BKfiw6XNLfad59cN-13" value="&lt;font style=&quot;font-size: 14px;&quot;&gt;Manage_By&lt;/font&gt;" style="shape=rhombus;perimeter=rhombusPerimeter;whiteSpace=wrap;html=1;align=center;fontStyle=1;fillColor=#dae8fc;strokeColor=#6c8ebf;" parent="1" vertex="1">
          <mxGeometry x="-60" y="390" width="120" height="60" as="geometry" />
        </mxCell>
        <mxCell id="IFO3BKfiw6XNLfad59cN-14" value="" style="endArrow=none;html=1;rounded=0;" parent="1" edge="1">
          <mxGeometry relative="1" as="geometry">
            <mxPoint x="-150" y="559.41" as="sourcePoint" />
            <mxPoint y="559" as="targetPoint" />
          </mxGeometry>
        </mxCell>
        <mxCell id="IFO3BKfiw6XNLfad59cN-16" value="" style="endArrow=none;html=1;rounded=0;" parent="1" edge="1">
          <mxGeometry relative="1" as="geometry">
            <mxPoint x="-1" y="560" as="sourcePoint" />
            <mxPoint x="-0.5900000000000318" y="450" as="targetPoint" />
          </mxGeometry>
        </mxCell>
        <mxCell id="IFO3BKfiw6XNLfad59cN-17" value="1" style="resizable=0;html=1;whiteSpace=wrap;align=right;verticalAlign=bottom;fontStyle=1" parent="IFO3BKfiw6XNLfad59cN-16" connectable="0" vertex="1">
          <mxGeometry x="1" relative="1" as="geometry">
            <mxPoint x="-9" y="-60" as="offset" />
          </mxGeometry>
        </mxCell>
        <mxCell id="IFO3BKfiw6XNLfad59cN-22" value="1" style="resizable=0;html=1;whiteSpace=wrap;align=right;verticalAlign=bottom;fontStyle=1" parent="IFO3BKfiw6XNLfad59cN-16" connectable="0" vertex="1">
          <mxGeometry x="1" relative="1" as="geometry">
            <mxPoint x="-9" y="25" as="offset" />
          </mxGeometry>
        </mxCell>
        <mxCell id="IFO3BKfiw6XNLfad59cN-20" value="" style="endArrow=none;html=1;rounded=0;entryX=-0.002;entryY=0.867;entryDx=0;entryDy=0;entryPerimeter=0;" parent="1" target="tXUsF4L0gm6LQhgz4FLE-6" edge="1">
          <mxGeometry relative="1" as="geometry">
            <mxPoint y="330" as="sourcePoint" />
            <mxPoint x="70" y="324.86" as="targetPoint" />
          </mxGeometry>
        </mxCell>
        <mxCell id="IFO3BKfiw6XNLfad59cN-21" value="" style="endArrow=none;html=1;rounded=0;" parent="1" edge="1">
          <mxGeometry relative="1" as="geometry">
            <mxPoint y="330" as="sourcePoint" />
            <mxPoint x="-0.28999999999999204" y="390" as="targetPoint" />
          </mxGeometry>
        </mxCell>
        <mxCell id="IFO3BKfiw6XNLfad59cN-23" value="" style="endArrow=none;html=1;rounded=0;entryX=0.5;entryY=1;entryDx=0;entryDy=0;fontStyle=1;exitX=0.5;exitY=0;exitDx=0;exitDy=0;" parent="1" source="tXUsF4L0gm6LQhgz4FLE-16" edge="1">
          <mxGeometry width="50" height="50" relative="1" as="geometry">
            <mxPoint x="-140" y="640" as="sourcePoint" />
            <mxPoint x="-170" y="590" as="targetPoint" />
          </mxGeometry>
        </mxCell>
        <mxCell id="IFO3BKfiw6XNLfad59cN-24" value="design" style="ellipse;whiteSpace=wrap;html=1;align=center;fillColor=#d5e8d4;strokeColor=#82b366;fontStyle=1" parent="1" vertex="1">
          <mxGeometry x="525" y="-130" width="80" height="30" as="geometry" />
        </mxCell>
        <mxCell id="IFO3BKfiw6XNLfad59cN-25" value="" style="endArrow=none;html=1;rounded=0;entryX=0;entryY=0.5;entryDx=0;entryDy=0;fontStyle=1;exitX=0.917;exitY=1.001;exitDx=0;exitDy=0;exitPerimeter=0;" parent="1" source="tXUsF4L0gm6LQhgz4FLE-23" target="IFO3BKfiw6XNLfad59cN-24" edge="1">
          <mxGeometry width="50" height="50" relative="1" as="geometry">
            <mxPoint x="480" y="-130" as="sourcePoint" />
            <mxPoint x="415" y="-310" as="targetPoint" />
          </mxGeometry>
        </mxCell>
        <mxCell id="IFO3BKfiw6XNLfad59cN-26" value="" style="endArrow=none;html=1;rounded=0;exitX=1;exitY=0.25;exitDx=0;exitDy=0;fontStyle=1;entryX=0.5;entryY=1;entryDx=0;entryDy=0;" parent="1" target="tXUsF4L0gm6LQhgz4FLE-58" edge="1">
          <mxGeometry width="50" height="50" relative="1" as="geometry">
            <mxPoint x="32" y="-170" as="sourcePoint" />
            <mxPoint x="60" y="-280" as="targetPoint" />
          </mxGeometry>
        </mxCell>
        <mxCell id="IFO3BKfiw6XNLfad59cN-27" value="stc_name" style="ellipse;whiteSpace=wrap;html=1;align=center;rotation=0;fillColor=#d5e8d4;strokeColor=#82b366;fontStyle=1" parent="1" vertex="1">
          <mxGeometry x="-10" y="-300" width="60" height="30" as="geometry" />
        </mxCell>
        <mxCell id="IFO3BKfiw6XNLfad59cN-28" value="" style="endArrow=none;html=1;rounded=0;exitX=0.803;exitY=0.008;exitDx=0;exitDy=0;fontStyle=1;entryX=0.5;entryY=1;entryDx=0;entryDy=0;exitPerimeter=0;" parent="1" source="tXUsF4L0gm6LQhgz4FLE-53" target="IFO3BKfiw6XNLfad59cN-27" edge="1">
          <mxGeometry width="50" height="50" relative="1" as="geometry">
            <mxPoint x="63" y="-167.5" as="sourcePoint" />
            <mxPoint x="100" y="-277.5" as="targetPoint" />
          </mxGeometry>
        </mxCell>
        <mxCell id="IFO3BKfiw6XNLfad59cN-29" value="&lt;b&gt;&lt;font style=&quot;font-size: 14px;&quot;&gt;Of&lt;/font&gt;&lt;/b&gt;" style="shape=rhombus;perimeter=rhombusPerimeter;whiteSpace=wrap;html=1;align=center;fillColor=#dae8fc;strokeColor=#6c8ebf;" parent="1" vertex="1">
          <mxGeometry x="180" y="53" width="120" height="60" as="geometry" />
        </mxCell>
        <mxCell id="IFO3BKfiw6XNLfad59cN-30" value="" style="endArrow=none;html=1;rounded=0;shape=link;" parent="1" edge="1">
          <mxGeometry width="50" height="50" relative="1" as="geometry">
            <mxPoint x="70" y="80" as="sourcePoint" />
            <mxPoint x="70" y="-130" as="targetPoint" />
          </mxGeometry>
        </mxCell>
        <mxCell id="IFO3BKfiw6XNLfad59cN-31" value="" style="endArrow=none;html=1;rounded=0;entryX=0;entryY=0.5;entryDx=0;entryDy=0;shape=link;" parent="1" target="IFO3BKfiw6XNLfad59cN-29" edge="1">
          <mxGeometry relative="1" as="geometry">
            <mxPoint x="70" y="80" as="sourcePoint" />
            <mxPoint x="180" y="92.5" as="targetPoint" />
          </mxGeometry>
        </mxCell>
        <mxCell id="IFO3BKfiw6XNLfad59cN-32" value="N" style="resizable=0;html=1;whiteSpace=wrap;align=right;verticalAlign=bottom;fontStyle=1" parent="IFO3BKfiw6XNLfad59cN-31" connectable="0" vertex="1">
          <mxGeometry x="1" relative="1" as="geometry">
            <mxPoint x="-10" y="-3" as="offset" />
          </mxGeometry>
        </mxCell>
        <mxCell id="IFO3BKfiw6XNLfad59cN-34" value="1" style="resizable=0;html=1;whiteSpace=wrap;align=right;verticalAlign=bottom;fontStyle=1" parent="IFO3BKfiw6XNLfad59cN-31" connectable="0" vertex="1">
          <mxGeometry x="1" relative="1" as="geometry">
            <mxPoint x="130" y="18" as="offset" />
          </mxGeometry>
        </mxCell>
        <mxCell id="IFO3BKfiw6XNLfad59cN-33" value="" style="endArrow=none;html=1;rounded=0;" parent="1" edge="1">
          <mxGeometry relative="1" as="geometry">
            <mxPoint x="300" y="580" as="sourcePoint" />
            <mxPoint x="360" y="580" as="targetPoint" />
          </mxGeometry>
        </mxCell>
        <mxCell id="p0yNfUYl9tHDruRCh2-I-7" value="" style="endArrow=none;html=1;rounded=0;exitX=1;exitY=0.5;exitDx=0;exitDy=0;" parent="1" source="IFO3BKfiw6XNLfad59cN-29" edge="1">
          <mxGeometry relative="1" as="geometry">
            <mxPoint x="200" y="250" as="sourcePoint" />
            <mxPoint x="300" y="580" as="targetPoint" />
          </mxGeometry>
        </mxCell>
        <mxCell id="IFO3BKfiw6XNLfad59cN-35" value="" style="endArrow=none;html=1;rounded=0;entryX=0.5;entryY=1;entryDx=0;entryDy=0;" parent="1" target="y27OYHLkrYb-7DQTx8__-77" edge="1">
          <mxGeometry relative="1" as="geometry">
            <mxPoint x="410.25" y="555" as="sourcePoint" />
            <mxPoint x="409.74999999999994" y="495" as="targetPoint" />
          </mxGeometry>
        </mxCell>
        <mxCell id="IFO3BKfiw6XNLfad59cN-36" value="M" style="resizable=0;html=1;whiteSpace=wrap;align=right;verticalAlign=bottom;fontStyle=1" parent="IFO3BKfiw6XNLfad59cN-35" connectable="0" vertex="1">
          <mxGeometry x="1" relative="1" as="geometry">
            <mxPoint x="-10" y="15" as="offset" />
          </mxGeometry>
        </mxCell>
        <mxCell id="IFO3BKfiw6XNLfad59cN-38" value="" style="endArrow=none;html=1;rounded=0;fontStyle=1;entryX=0.5;entryY=1;entryDx=0;entryDy=0;" parent="1" source="Yr4l_lz7QZZwpKAGB9xT-16" target="VnBDZvGFjx8W2MfuI985-4" edge="1">
          <mxGeometry width="50" height="50" relative="1" as="geometry">
            <mxPoint x="866" y="460" as="sourcePoint" />
            <mxPoint x="866" y="410" as="targetPoint" />
          </mxGeometry>
        </mxCell>
        <mxCell id="VnBDZvGFjx8W2MfuI985-4" value="sup_name" style="ellipse;whiteSpace=wrap;html=1;align=center;fillColor=#d5e8d4;strokeColor=#82b366;fontStyle=1" parent="1" vertex="1">
          <mxGeometry x="820.89" y="420" width="80" height="30" as="geometry" />
        </mxCell>
        <mxCell id="IFO3BKfiw6XNLfad59cN-43" value="" style="endArrow=none;html=1;rounded=0;entryX=0;entryY=1;entryDx=0;entryDy=0;fontStyle=1;exitX=0.5;exitY=0;exitDx=0;exitDy=0;" parent="1" source="Yr4l_lz7QZZwpKAGB9xT-17" target="tXUsF4L0gm6LQhgz4FLE-98" edge="1">
          <mxGeometry width="50" height="50" relative="1" as="geometry">
            <mxPoint x="550" y="640" as="sourcePoint" />
            <mxPoint x="555" y="584" as="targetPoint" />
          </mxGeometry>
        </mxCell>
        <mxCell id="IFO3BKfiw6XNLfad59cN-44" value="" style="endArrow=none;html=1;rounded=0;entryX=1;entryY=1;entryDx=0;entryDy=0;fontStyle=1;exitX=0.426;exitY=0;exitDx=0;exitDy=0;exitPerimeter=0;" parent="1" source="Yr4l_lz7QZZwpKAGB9xT-19" target="tXUsF4L0gm6LQhgz4FLE-98" edge="1">
          <mxGeometry width="50" height="50" relative="1" as="geometry">
            <mxPoint x="640" y="640" as="sourcePoint" />
            <mxPoint x="625" y="605" as="targetPoint" />
          </mxGeometry>
        </mxCell>
        <mxCell id="IFO3BKfiw6XNLfad59cN-48" value="" style="endArrow=none;html=1;rounded=0;fillColor=#d5e8d4;strokeColor=#000000;fontStyle=1;exitX=0.345;exitY=0.137;exitDx=0;exitDy=0;exitPerimeter=0;entryX=0.5;entryY=1;entryDx=0;entryDy=0;" parent="1" source="Yr4l_lz7QZZwpKAGB9xT-82" target="Yr4l_lz7QZZwpKAGB9xT-62" edge="1">
          <mxGeometry width="50" height="50" relative="1" as="geometry">
            <mxPoint x="525" y="38" as="sourcePoint" />
            <mxPoint x="500" as="targetPoint" />
          </mxGeometry>
        </mxCell>
        <mxCell id="IFO3BKfiw6XNLfad59cN-49" value="" style="endArrow=none;html=1;rounded=0;fillColor=#d5e8d4;strokeColor=#000000;fontStyle=1;exitX=1;exitY=0;exitDx=0;exitDy=0;entryX=0.433;entryY=0.967;entryDx=0;entryDy=0;entryPerimeter=0;" parent="1" source="Yr4l_lz7QZZwpKAGB9xT-82" target="Yr4l_lz7QZZwpKAGB9xT-56" edge="1">
          <mxGeometry width="50" height="50" relative="1" as="geometry">
            <mxPoint x="570" y="42" as="sourcePoint" />
            <mxPoint x="600" as="targetPoint" />
          </mxGeometry>
        </mxCell>
        <mxCell id="IFO3BKfiw6XNLfad59cN-50" value="" style="endArrow=none;html=1;rounded=0;dashed=1;fillColor=#0050ef;strokeColor=#001DBC;" parent="1" edge="1">
          <mxGeometry relative="1" as="geometry">
            <mxPoint x="667.5" y="-100" as="sourcePoint" />
            <mxPoint x="670" y="380" as="targetPoint" />
          </mxGeometry>
        </mxCell>
        <mxCell id="IFO3BKfiw6XNLfad59cN-52" value="" style="endArrow=none;html=1;rounded=0;dashed=1;fillColor=#0050ef;strokeColor=#001DBC;" parent="1" edge="1">
          <mxGeometry relative="1" as="geometry">
            <mxPoint x="670" y="380" as="sourcePoint" />
            <mxPoint x="1010" y="380" as="targetPoint" />
          </mxGeometry>
        </mxCell>
        <mxCell id="IFO3BKfiw6XNLfad59cN-54" value="" style="endArrow=none;html=1;rounded=0;dashed=1;fillColor=#0050ef;strokeColor=#001DBC;" parent="1" edge="1">
          <mxGeometry relative="1" as="geometry">
            <mxPoint x="1010" y="150" as="sourcePoint" />
            <mxPoint x="1010" y="380" as="targetPoint" />
          </mxGeometry>
        </mxCell>
        <mxCell id="IFO3BKfiw6XNLfad59cN-56" value="" style="endArrow=none;html=1;rounded=0;dashed=1;fillColor=#0050ef;strokeColor=#001DBC;" parent="1" edge="1">
          <mxGeometry relative="1" as="geometry">
            <mxPoint x="870" y="150" as="sourcePoint" />
            <mxPoint x="1010" y="152.5" as="targetPoint" />
          </mxGeometry>
        </mxCell>
        <mxCell id="IFO3BKfiw6XNLfad59cN-58" value="" style="endArrow=none;html=1;rounded=0;dashed=1;fillColor=#0050ef;strokeColor=default;" parent="1" edge="1">
          <mxGeometry relative="1" as="geometry">
            <mxPoint x="870" y="10" as="sourcePoint" />
            <mxPoint x="870" y="152.5" as="targetPoint" />
          </mxGeometry>
        </mxCell>
        <mxCell id="IFO3BKfiw6XNLfad59cN-59" value="" style="endArrow=none;html=1;rounded=0;dashed=1;fillColor=#0050ef;strokeColor=#001DBC;" parent="1" edge="1">
          <mxGeometry relative="1" as="geometry">
            <mxPoint x="870" y="10" as="sourcePoint" />
            <mxPoint x="950" y="10" as="targetPoint" />
          </mxGeometry>
        </mxCell>
        <mxCell id="IFO3BKfiw6XNLfad59cN-60" value="" style="endArrow=none;html=1;rounded=0;dashed=1;fillColor=#0050ef;strokeColor=#001DBC;" parent="1" edge="1">
          <mxGeometry relative="1" as="geometry">
            <mxPoint x="950" y="-100" as="sourcePoint" />
            <mxPoint x="949.5" y="12.5" as="targetPoint" />
          </mxGeometry>
        </mxCell>
        <mxCell id="IFO3BKfiw6XNLfad59cN-61" value="" style="endArrow=none;html=1;rounded=0;dashed=1;fontStyle=1;fillColor=#0050ef;strokeColor=#001DBC;" parent="1" edge="1">
          <mxGeometry relative="1" as="geometry">
            <mxPoint x="667.5" y="-102.5" as="sourcePoint" />
            <mxPoint x="950" y="-100" as="targetPoint" />
          </mxGeometry>
        </mxCell>
        <mxCell id="YqqqYDZGpM5VAaylrJDC-1" value="stc_qty" style="ellipse;whiteSpace=wrap;html=1;align=center;rotation=0;fillColor=#d5e8d4;strokeColor=#82b366;fontStyle=1" parent="1" vertex="1">
          <mxGeometry x="60" y="-300" width="60" height="30" as="geometry" />
        </mxCell>
        <mxCell id="YqqqYDZGpM5VAaylrJDC-2" value="" style="endArrow=none;html=1;rounded=0;exitX=0.92;exitY=0.029;exitDx=0;exitDy=0;fontStyle=1;entryX=0.5;entryY=1;entryDx=0;entryDy=0;exitPerimeter=0;" parent="1" source="tXUsF4L0gm6LQhgz4FLE-53" target="YqqqYDZGpM5VAaylrJDC-1" edge="1">
          <mxGeometry width="50" height="50" relative="1" as="geometry">
            <mxPoint x="130" y="-170" as="sourcePoint" />
            <mxPoint x="87" y="-272.5" as="targetPoint" />
          </mxGeometry>
        </mxCell>
      </root>
    </mxGraphModel>
  </diagram>
</mxfile>
